<?xml version="1.0" encoding="UTF-8" standalone="no"?>
<!-- Created with Inkscape (http://www.inkscape.org/) -->

<svg
   width="210mm"
   height="297mm"
   viewBox="0 0 210 297"
   version="1.1"
   id="svg5"
   sodipodi:docname="custom-logo.svg"
   inkscape:version="1.1.2 (b8e25be8, 2022-02-05)"
   inkscape:export-filename="/Users/michaelwoodward/dApps/portfolio/src/assets/images/custom-logo.png"
   inkscape:export-xdpi="96"
   inkscape:export-ydpi="96"
   xmlns:inkscape="http://www.inkscape.org/namespaces/inkscape"
   xmlns:sodipodi="http://sodipodi.sourceforge.net/DTD/sodipodi-0.dtd"
   xmlns:xlink="http://www.w3.org/1999/xlink"
   xmlns="http://www.w3.org/2000/svg"
   xmlns:svg="http://www.w3.org/2000/svg">
  <sodipodi:namedview
     id="namedview7"
     pagecolor="#505050"
     bordercolor="#ffffff"
     borderopacity="1"
     inkscape:pageshadow="0"
     inkscape:pageopacity="0"
     inkscape:pagecheckerboard="1"
     inkscape:document-units="mm"
     showgrid="false"
     inkscape:zoom="0.77771465"
     inkscape:cx="143.36878"
     inkscape:cy="576.04676"
     inkscape:window-width="1510"
     inkscape:window-height="1166"
     inkscape:window-x="1050"
     inkscape:window-y="23"
     inkscape:window-maximized="0"
     inkscape:current-layer="layer1" />
  <defs
     id="defs2">
    <linearGradient
       inkscape:collect="always"
       id="linearGradient11557">
      <stop
         style="stop-color:#ffad55;stop-opacity:1;"
         offset="0"
         id="stop11553" />
      <stop
         style="stop-color:#ffad55;stop-opacity:0;"
         offset="1"
         id="stop11555" />
    </linearGradient>
    <linearGradient
       inkscape:collect="always"
       id="linearGradient11351">
      <stop
         style="stop-color:#d30054;stop-opacity:1;"
         offset="0"
         id="stop11347" />
      <stop
         style="stop-color:#d30054;stop-opacity:0;"
         offset="1"
         id="stop11349" />
    </linearGradient>
    <rect
       x="178.72879"
       y="315.02557"
       width="456.46562"
       height="519.47074"
       id="rect3890" />
    <rect
       x="178.72879"
       y="315.02557"
       width="456.46561"
       height="519.47076"
       id="rect3890-0" />
    <meshgradient
       inkscape:collect="always"
       id="meshgradient11189"
       gradientUnits="userSpaceOnUse"
       x="249.55457"
       y="374.70499">
      <meshrow
         id="meshrow11191">
        <meshpatch
           id="meshpatch11193">
          <stop
             path="c 117.11,0  234.219,0  351.329,0"
             style="stop-color:#ffffff;stop-opacity:1"
             id="stop11195" />
          <stop
             path="c 0,75.9002  0,151.8  0,227.701"
             style="stop-color:#0000ff;stop-opacity:1"
             id="stop11197" />
          <stop
             path="c -117.11,0  -234.219,0  -351.329,0"
             style="stop-color:#ffffff;stop-opacity:1"
             id="stop11199" />
          <stop
             path="c 0,-75.9002  0,-151.8  0,-227.701"
             style="stop-color:#0000ff;stop-opacity:1"
             id="stop11201" />
        </meshpatch>
      </meshrow>
    </meshgradient>
    <linearGradient
       inkscape:collect="always"
       xlink:href="#linearGradient11351"
       id="linearGradient11353"
       x1="249.55456"
       y1="488.55532"
       x2="600.8837"
       y2="488.55532"
       gradientUnits="userSpaceOnUse" />
    <linearGradient
       inkscape:collect="always"
       xlink:href="#linearGradient11557"
       id="linearGradient11559"
       x1="218.82529"
       y1="578.47452"
       x2="574.40185"
       y2="578.47452"
       gradientUnits="userSpaceOnUse" />
  </defs>
  <g
     inkscape:label="Layer 1"
     inkscape:groupmode="layer"
     id="layer1">
    <ellipse
       id="path9396"
       cx="108.35567"
       cy="141.52577"
       rx="54.603092"
       ry="45.587627"
       style="stroke-width:0.264583" />
    <ellipse
       style="fill:#00ffff;stroke-width:0.254086"
       id="path9422"
       cx="108.35567"
       cy="141.35567"
       rx="50.860825"
       ry="42.355671" />
    <path
       style="fill:none;stroke-width:0.340207"
       d="m 104.27319,183.31366 c -13.229528,-0.76953 -26.076475,-6.29586 -34.757904,-14.9517 -5.045718,-5.03084 -8.999622,-11.73624 -10.713479,-18.16892 -0.799809,-3.00194 -0.904282,-4.02295 -0.904282,-8.83737 0,-4.80816 0.105312,-5.84026 0.902551,-8.84536 2.898151,-10.92424 11.045503,-20.6458 22.339099,-26.65542 14.452952,-7.690797 33.364695,-8.749331 48.621615,-2.72147 8.75867,3.46047 16.55916,9.24552 21.721,16.10885 2.50883,3.33582 5.3499,9.19873 6.42947,13.26804 0.79724,3.0051 0.90255,4.0372 0.90255,8.84536 0,4.80816 -0.10531,5.84026 -0.90255,8.84536 -1.07957,4.0693 -3.92064,9.93222 -6.42947,13.26804 -6.37674,8.4787 -16.61383,15.15905 -27.59533,18.0077 -6.45773,1.67517 -12.56322,2.24697 -19.61327,1.83689 z"
       id="path9619" />
    <path
       style="fill:none;stroke-width:0.340207"
       d="m 104.27319,183.31366 c -13.229528,-0.76953 -26.076475,-6.29586 -34.757904,-14.9517 -5.045718,-5.03084 -8.999622,-11.73624 -10.713479,-18.16892 -0.799809,-3.00194 -0.904282,-4.02295 -0.904282,-8.83737 0,-4.80816 0.105312,-5.84026 0.902551,-8.84536 2.898151,-10.92424 11.045503,-20.6458 22.339099,-26.65542 14.452952,-7.690797 33.364695,-8.749331 48.621615,-2.72147 8.75867,3.46047 16.55916,9.24552 21.721,16.10885 2.50883,3.33582 5.3499,9.19873 6.42947,13.26804 0.79724,3.0051 0.90255,4.0372 0.90255,8.84536 0,4.80816 -0.10531,5.84026 -0.90255,8.84536 -1.07957,4.0693 -3.92064,9.93222 -6.42947,13.26804 -6.37674,8.4787 -16.61383,15.15905 -27.59533,18.0077 -6.45773,1.67517 -12.56322,2.24697 -19.61327,1.83689 z"
       id="path9695" />
    <path
       style="fill:none;stroke-width:0.340207"
       d="m 104.27319,183.31366 c -13.229528,-0.76953 -26.076475,-6.29586 -34.757904,-14.9517 -5.045718,-5.03084 -8.999622,-11.73624 -10.713479,-18.16892 -0.799809,-3.00194 -0.904282,-4.02295 -0.904282,-8.83737 0,-4.80816 0.105312,-5.84026 0.902551,-8.84536 2.898151,-10.92424 11.045503,-20.6458 22.339099,-26.65542 14.452952,-7.690797 33.364695,-8.749331 48.621615,-2.72147 8.75867,3.46047 16.55916,9.24552 21.721,16.10885 2.50883,3.33582 5.3499,9.19873 6.42947,13.26804 0.79724,3.0051 0.90255,4.0372 0.90255,8.84536 0,4.80816 -0.10531,5.84026 -0.90255,8.84536 -1.07957,4.0693 -3.92064,9.93222 -6.42947,13.26804 -6.37674,8.4787 -16.61383,15.15905 -27.59533,18.0077 -6.45773,1.67517 -12.56322,2.24697 -19.61327,1.83689 z"
       id="path9734" />
    <path
       style="fill:none;stroke-width:0.340207"
       d="m 104.27319,183.31366 c -13.229528,-0.76953 -26.076475,-6.29586 -34.757904,-14.9517 -5.045718,-5.03084 -8.999622,-11.73624 -10.713479,-18.16892 -0.799809,-3.00194 -0.904282,-4.02295 -0.904282,-8.83737 0,-4.80816 0.105312,-5.84026 0.902551,-8.84536 2.898151,-10.92424 11.045503,-20.6458 22.339099,-26.65542 14.452952,-7.690797 33.364695,-8.749331 48.621615,-2.72147 8.75867,3.46047 16.55916,9.24552 21.721,16.10885 2.50883,3.33582 5.3499,9.19873 6.42947,13.26804 0.79724,3.0051 0.90255,4.0372 0.90255,8.84536 0,4.80816 -0.10531,5.84026 -0.90255,8.84536 -1.07957,4.0693 -3.92064,9.93222 -6.42947,13.26804 -6.37674,8.4787 -16.61383,15.15905 -27.59533,18.0077 -6.45773,1.67517 -12.56322,2.24697 -19.61327,1.83689 z"
       id="path9773" />
    <text
       xml:space="preserve"
       transform="matrix(0.26458333,0,0,0.26458333,9.8659789,17.690722)"
       id="text3888"
       style="font-style:normal;font-variant:normal;font-weight:normal;font-stretch:normal;font-size:192px;line-height:1.25;font-family:Herculanum;-inkscape-font-specification:Herculanum;white-space:pre;shape-inside:url(#rect3890);fill:#000000;fill-opacity:1;stroke:none"><tspan
         x="178.72852"
         y="494.42965"
         id="tspan12109">M</tspan></text>
    <text
       xml:space="preserve"
       transform="matrix(-0.26458333,0,0,-0.26458333,207.26477,263.57292)"
       id="text3888-5"
       style="font-style:normal;font-variant:normal;font-weight:normal;font-stretch:normal;font-size:192px;line-height:1.25;font-family:Herculanum;-inkscape-font-specification:Herculanum;white-space:pre;shape-inside:url(#rect3890-0);fill:#000000;fill-opacity:1;stroke:none"><tspan
         x="178.72852"
         y="494.42965"
         id="tspan12111">M</tspan></text>
    <path
       style="fill:none;stroke-width:1.28582"
       d="m 578.3658,596.2984 c -11.29416,-15.81301 -13.2077,-27.70511 -7.60237,-47.2463 4.07378,-14.20191 10.81548,-29.19581 16.16326,-35.94791 4.68864,-5.9199 4.83723,-7.74108 0.93102,-11.41078 -3.3591,-3.1557 -12.56034,-3.90051 -14.68248,-1.1885 -0.69172,0.884 -1.96239,4.50037 -2.82371,8.03637 -2.37603,9.75437 -15.721,52.58111 -16.73519,53.70665 -0.48969,0.54345 -7.38195,-5.9387 -15.31613,-14.40477 -26.02578,-27.77052 -41.48126,-34.78323 -63.83016,-28.96207 -13.46854,3.50809 -29.91969,13.00318 -43.40051,25.04938 l -7.39461,6.60769 -2.74479,-6.21153 c -3.85191,-8.71695 -7.74086,-33.75661 -6.85596,-44.14317 0.39164,-4.59681 1.65857,-14.08399 2.81541,-21.08265 l 2.10334,-12.72482 -2.94356,-2.38355 c -1.61896,-1.31095 -4.27041,-2.38354 -5.89214,-2.38354 -2.5725,0 -3.43816,1.47904 -6.78724,11.59652 -5.30197,16.01713 -10.5695,24.30406 -24.1656,38.0176 -9.94095,10.02681 -13.55461,12.71379 -24.21727,18.00702 -16.19285,8.03854 -22.41681,8.36531 -33.65824,1.76715 -9.8906,-5.80531 -36.23284,-32.24561 -46.11204,-46.2837 -4.2148,-5.98912 -11.91769,-16.57717 -17.11752,-23.529 -11.1464,-14.90198 -11.50657,-12.93169 5.41856,-29.64223 28.21736,-27.85962 66.08737,-46.41129 109.36954,-53.57769 19.64422,-3.25257 51.12335,-3.50196 70.2013,-0.55616 53.99739,8.33766 100.33036,34.5648 129.44088,73.27103 9.48221,12.60782 20.22012,34.76687 24.30038,50.14693 3.01319,11.35785 3.41121,15.25872 3.41121,33.43128 0,18.06367 -0.40611,22.09535 -3.32946,33.05301 -2.85418,10.69842 -12.59953,34.45247 -14.13449,34.45247 -0.27959,0 -2.26473,-2.45913 -4.41143,-5.46473 z"
       id="path9966"
       transform="scale(0.26458333)" />
    <path
       style="fill:url(#linearGradient11353);stroke-width:1.28503939;fill-opacity:1;stroke-miterlimit:4;stroke-dasharray:none;stroke:url(#meshgradient11189)"
       d="m 578.3658,596.2984 c -11.29416,-15.81301 -13.2077,-27.70511 -7.60237,-47.2463 4.07378,-14.20191 10.81548,-29.19581 16.16326,-35.94791 4.68864,-5.9199 4.83723,-7.74108 0.93102,-11.41078 -3.3591,-3.1557 -12.56034,-3.90051 -14.68248,-1.1885 -0.69172,0.884 -1.96239,4.50037 -2.82371,8.03637 -2.37603,9.75437 -15.721,52.58111 -16.73519,53.70665 -0.48969,0.54345 -7.38195,-5.9387 -15.31613,-14.40477 -26.02578,-27.77052 -41.48126,-34.78323 -63.83016,-28.96207 -13.46854,3.50809 -29.91969,13.00318 -43.40051,25.04938 l -7.39461,6.60769 -2.74479,-6.21153 c -3.85191,-8.71695 -7.74086,-33.75661 -6.85596,-44.14317 0.39164,-4.59681 1.65857,-14.08399 2.81541,-21.08265 l 2.10334,-12.72482 -2.94356,-2.38355 c -1.61896,-1.31095 -4.27041,-2.38354 -5.89214,-2.38354 -2.5725,0 -3.43816,1.47904 -6.78724,11.59652 -5.30197,16.01713 -10.5695,24.30406 -24.1656,38.0176 -9.94095,10.02681 -13.55461,12.71379 -24.21727,18.00702 -16.19285,8.03854 -22.41681,8.36531 -33.65824,1.76715 -9.8906,-5.80531 -36.23284,-32.24561 -46.11204,-46.2837 -4.2148,-5.98912 -11.91769,-16.57717 -17.11752,-23.529 -11.1464,-14.90198 -11.50657,-12.93169 5.41856,-29.64223 28.21736,-27.85962 66.08737,-46.41129 109.36954,-53.57769 19.64422,-3.25257 51.12335,-3.50196 70.2013,-0.55616 53.99739,8.33766 100.33036,34.5648 129.44088,73.27103 9.48221,12.60782 20.22012,34.76687 24.30038,50.14693 3.01319,11.35785 3.41121,15.25872 3.41121,33.43128 0,18.06367 -0.40611,22.09535 -3.32946,33.05301 -2.85418,10.69842 -12.59953,34.45247 -14.13449,34.45247 -0.27959,0 -2.26473,-2.45913 -4.41143,-5.46473 z"
       id="path10042"
       transform="scale(0.26458333)" />
    <path
       style="fill:url(#linearGradient11559);stroke-width:1.28582;fill-opacity:1"
       d="m 394.10342,692.83904 c -50.00139,-2.90848 -98.55678,-23.7954 -131.36847,-56.51037 -19.07043,-19.01421 -34.01433,-44.35746 -40.4919,-68.66993 -3.02289,-11.34593 -3.41776,-15.20487 -3.41776,-33.40109 0,-18.09938 0.40315,-22.08475 3.3528,-33.145 3.27476,-12.27926 13.36233,-35.73394 16.09515,-37.42292 0.76162,-0.4707 3.21251,1.82718 5.50914,5.16521 9.46951,13.76346 11.36359,26.97327 6.42453,44.80627 -3.34663,12.08336 -10.86707,28.64051 -16.60938,36.56753 -4.95437,6.83932 -5.03346,8.16487 -0.69095,11.58069 3.80297,2.99141 12.27469,3.61999 14.25502,1.05769 0.68321,-0.884 2.26336,-5.3683 3.51144,-9.9651 1.24808,-4.5968 4.46442,-15.30124 7.14743,-23.78764 2.683,-8.48641 5.81095,-18.64423 6.95101,-22.57295 l 2.07282,-7.14312 18.94736,18.77156 c 12.05055,11.93875 21.3923,20.0608 25.66425,22.31343 21.56163,11.36958 48.58372,4.11402 77.23899,-20.73904 4.45093,-3.86033 8.2348,-6.803 8.40862,-6.53925 2.85022,4.32493 6.32783,16.25136 8.01336,27.48173 2.2748,15.15662 1.96233,24.6178 -1.47961,44.79968 -1.43533,8.41618 -1.56628,11.8173 -0.50422,13.097 1.48755,1.79239 8.70059,3.87957 9.75687,2.82327 0.33064,-0.33064 2.50588,-6.07105 4.83386,-12.75646 4.81073,-13.81529 10.93942,-23.73548 21.90787,-35.46116 14.16333,-15.14115 36.91184,-27.18454 48.43011,-25.63962 12.92356,1.73342 41.81049,28.75805 63.65515,59.5514 6.97495,9.83226 14.93245,20.32528 17.68333,23.31785 l 5.00161,5.44101 -8.64335,10.24235 c -23.61851,27.98787 -59.3389,49.88844 -97.5262,59.7944 -24.40718,6.33133 -47.48306,8.49251 -74.12888,6.94258 z"
       id="path10183"
       transform="scale(0.26458333)" />
  </g>
  <script
     id="mesh_polyfill"
     type="text/javascript">
!function(){const t=&quot;http://www.w3.org/2000/svg&quot;,e=&quot;http://www.w3.org/1999/xlink&quot;,s=&quot;http://www.w3.org/1999/xhtml&quot;,r=2;if(document.createElementNS(t,&quot;meshgradient&quot;).x)return;const n=(t,e,s,r)=&gt;{let n=new x(.5*(e.x+s.x),.5*(e.y+s.y)),o=new x(.5*(t.x+e.x),.5*(t.y+e.y)),i=new x(.5*(s.x+r.x),.5*(s.y+r.y)),a=new x(.5*(n.x+o.x),.5*(n.y+o.y)),h=new x(.5*(n.x+i.x),.5*(n.y+i.y)),l=new x(.5*(a.x+h.x),.5*(a.y+h.y));return[[t,o,a,l],[l,h,i,r]]},o=t=&gt;{let e=t[0].distSquared(t[1]),s=t[2].distSquared(t[3]),r=.25*t[0].distSquared(t[2]),n=.25*t[1].distSquared(t[3]),o=e&gt;s?e:s,i=r&gt;n?r:n;return 18*(o&gt;i?o:i)},i=(t,e)=&gt;Math.sqrt(t.distSquared(e)),a=(t,e)=&gt;t.scale(2/3).add(e.scale(1/3)),h=t=&gt;{let e,s,r,n,o,i,a,h=new g;return t.match(/(\w+\(\s*[^)]+\))+/g).forEach(t=&gt;{let l=t.match(/[\w.-]+/g),d=l.shift();switch(d){case&quot;translate&quot;:2===l.length?e=new g(1,0,0,1,l[0],l[1]):(console.error(&quot;mesh.js: translate does not have 2 arguments!&quot;),e=new g(1,0,0,1,0,0)),h=h.append(e);break;case&quot;scale&quot;:1===l.length?s=new g(l[0],0,0,l[0],0,0):2===l.length?s=new g(l[0],0,0,l[1],0,0):(console.error(&quot;mesh.js: scale does not have 1 or 2 arguments!&quot;),s=new g(1,0,0,1,0,0)),h=h.append(s);break;case&quot;rotate&quot;:if(3===l.length&amp;&amp;(e=new g(1,0,0,1,l[1],l[2]),h=h.append(e)),l[0]){r=l[0]*Math.PI/180;let t=Math.cos(r),e=Math.sin(r);Math.abs(t)&lt;1e-16&amp;&amp;(t=0),Math.abs(e)&lt;1e-16&amp;&amp;(e=0),a=new g(t,e,-e,t,0,0),h=h.append(a)}else console.error(&quot;math.js: No argument to rotate transform!&quot;);3===l.length&amp;&amp;(e=new g(1,0,0,1,-l[1],-l[2]),h=h.append(e));break;case&quot;skewX&quot;:l[0]?(r=l[0]*Math.PI/180,n=Math.tan(r),o=new g(1,0,n,1,0,0),h=h.append(o)):console.error(&quot;math.js: No argument to skewX transform!&quot;);break;case&quot;skewY&quot;:l[0]?(r=l[0]*Math.PI/180,n=Math.tan(r),i=new g(1,n,0,1,0,0),h=h.append(i)):console.error(&quot;math.js: No argument to skewY transform!&quot;);break;case&quot;matrix&quot;:6===l.length?h=h.append(new g(...l)):console.error(&quot;math.js: Incorrect number of arguments for matrix!&quot;);break;default:console.error(&quot;mesh.js: Unhandled transform type: &quot;+d)}}),h},l=t=&gt;{let e=[],s=t.split(/[ ,]+/);for(let t=0,r=s.length-1;t&lt;r;t+=2)e.push(new x(parseFloat(s[t]),parseFloat(s[t+1])));return e},d=(t,e)=&gt;{for(let s in e)t.setAttribute(s,e[s])},c=(t,e,s,r,n)=&gt;{let o,i,a=[0,0,0,0];for(let h=0;h&lt;3;++h)e[h]&lt;t[h]&amp;&amp;e[h]&lt;s[h]||t[h]&lt;e[h]&amp;&amp;s[h]&lt;e[h]?a[h]=0:(a[h]=.5*((e[h]-t[h])/r+(s[h]-e[h])/n),o=Math.abs(3*(e[h]-t[h])/r),i=Math.abs(3*(s[h]-e[h])/n),a[h]&gt;o?a[h]=o:a[h]&gt;i&amp;&amp;(a[h]=i));return a},u=[[1,0,0,0,0,0,0,0,0,0,0,0,0,0,0,0],[0,0,0,0,1,0,0,0,0,0,0,0,0,0,0,0],[-3,3,0,0,-2,-1,0,0,0,0,0,0,0,0,0,0],[2,-2,0,0,1,1,0,0,0,0,0,0,0,0,0,0],[0,0,0,0,0,0,0,0,1,0,0,0,0,0,0,0],[0,0,0,0,0,0,0,0,0,0,0,0,1,0,0,0],[0,0,0,0,0,0,0,0,-3,3,0,0,-2,-1,0,0],[0,0,0,0,0,0,0,0,2,-2,0,0,1,1,0,0],[-3,0,3,0,0,0,0,0,-2,0,-1,0,0,0,0,0],[0,0,0,0,-3,0,3,0,0,0,0,0,-2,0,-1,0],[9,-9,-9,9,6,3,-6,-3,6,-6,3,-3,4,2,2,1],[-6,6,6,-6,-3,-3,3,3,-4,4,-2,2,-2,-2,-1,-1],[2,0,-2,0,0,0,0,0,1,0,1,0,0,0,0,0],[0,0,0,0,2,0,-2,0,0,0,0,0,1,0,1,0],[-6,6,6,-6,-4,-2,4,2,-3,3,-3,3,-2,-1,-2,-1],[4,-4,-4,4,2,2,-2,-2,2,-2,2,-2,1,1,1,1]],f=t=&gt;{let e=[];for(let s=0;s&lt;16;++s){e[s]=0;for(let r=0;r&lt;16;++r)e[s]+=u[s][r]*t[r]}return e},p=(t,e,s)=&gt;{const r=e*e,n=s*s,o=e*e*e,i=s*s*s;return t[0]+t[1]*e+t[2]*r+t[3]*o+t[4]*s+t[5]*s*e+t[6]*s*r+t[7]*s*o+t[8]*n+t[9]*n*e+t[10]*n*r+t[11]*n*o+t[12]*i+t[13]*i*e+t[14]*i*r+t[15]*i*o},y=t=&gt;{let e=[],s=[],r=[];for(let s=0;s&lt;4;++s)e[s]=[],e[s][0]=n(t[0][s],t[1][s],t[2][s],t[3][s]),e[s][1]=[],e[s][1].push(...n(...e[s][0][0])),e[s][1].push(...n(...e[s][0][1])),e[s][2]=[],e[s][2].push(...n(...e[s][1][0])),e[s][2].push(...n(...e[s][1][1])),e[s][2].push(...n(...e[s][1][2])),e[s][2].push(...n(...e[s][1][3]));for(let t=0;t&lt;8;++t){s[t]=[];for(let r=0;r&lt;4;++r)s[t][r]=[],s[t][r][0]=n(e[0][2][t][r],e[1][2][t][r],e[2][2][t][r],e[3][2][t][r]),s[t][r][1]=[],s[t][r][1].push(...n(...s[t][r][0][0])),s[t][r][1].push(...n(...s[t][r][0][1])),s[t][r][2]=[],s[t][r][2].push(...n(...s[t][r][1][0])),s[t][r][2].push(...n(...s[t][r][1][1])),s[t][r][2].push(...n(...s[t][r][1][2])),s[t][r][2].push(...n(...s[t][r][1][3]))}for(let t=0;t&lt;8;++t){r[t]=[];for(let e=0;e&lt;8;++e)r[t][e]=[],r[t][e][0]=s[t][0][2][e],r[t][e][1]=s[t][1][2][e],r[t][e][2]=s[t][2][2][e],r[t][e][3]=s[t][3][2][e]}return r};class x{constructor(t,e){this.x=t||0,this.y=e||0}toString(){return`(x=${this.x}, y=${this.y})`}clone(){return new x(this.x,this.y)}add(t){return new x(this.x+t.x,this.y+t.y)}scale(t){return void 0===t.x?new x(this.x*t,this.y*t):new x(this.x*t.x,this.y*t.y)}distSquared(t){let e=this.x-t.x,s=this.y-t.y;return e*e+s*s}transform(t){let e=this.x*t.a+this.y*t.c+t.e,s=this.x*t.b+this.y*t.d+t.f;return new x(e,s)}}class g{constructor(t,e,s,r,n,o){void 0===t?(this.a=1,this.b=0,this.c=0,this.d=1,this.e=0,this.f=0):(this.a=t,this.b=e,this.c=s,this.d=r,this.e=n,this.f=o)}toString(){return`affine: ${this.a} ${this.c} ${this.e} \n       ${this.b} ${this.d} ${this.f}`}append(t){t instanceof g||console.error(&quot;mesh.js: argument to Affine.append is not affine!&quot;);let e=this.a*t.a+this.c*t.b,s=this.b*t.a+this.d*t.b,r=this.a*t.c+this.c*t.d,n=this.b*t.c+this.d*t.d,o=this.a*t.e+this.c*t.f+this.e,i=this.b*t.e+this.d*t.f+this.f;return new g(e,s,r,n,o,i)}}class w{constructor(t,e){this.nodes=t,this.colors=e}paintCurve(t,e){if(o(this.nodes)&gt;r){const s=n(...this.nodes);let r=[[],[]],o=[[],[]];for(let t=0;t&lt;4;++t)r[0][t]=this.colors[0][t],r[1][t]=(this.colors[0][t]+this.colors[1][t])/2,o[0][t]=r[1][t],o[1][t]=this.colors[1][t];let i=new w(s[0],r),a=new w(s[1],o);i.paintCurve(t,e),a.paintCurve(t,e)}else{let s=Math.round(this.nodes[0].x);if(s&gt;=0&amp;&amp;s&lt;e){let r=4*(~~this.nodes[0].y*e+s);t[r]=Math.round(this.colors[0][0]),t[r+1]=Math.round(this.colors[0][1]),t[r+2]=Math.round(this.colors[0][2]),t[r+3]=Math.round(this.colors[0][3])}}}}class m{constructor(t,e){this.nodes=t,this.colors=e}split(){let t=[[],[],[],[]],e=[[],[],[],[]],s=[[[],[]],[[],[]]],r=[[[],[]],[[],[]]];for(let s=0;s&lt;4;++s){const r=n(this.nodes[0][s],this.nodes[1][s],this.nodes[2][s],this.nodes[3][s]);t[0][s]=r[0][0],t[1][s]=r[0][1],t[2][s]=r[0][2],t[3][s]=r[0][3],e[0][s]=r[1][0],e[1][s]=r[1][1],e[2][s]=r[1][2],e[3][s]=r[1][3]}for(let t=0;t&lt;4;++t)s[0][0][t]=this.colors[0][0][t],s[0][1][t]=this.colors[0][1][t],s[1][0][t]=(this.colors[0][0][t]+this.colors[1][0][t])/2,s[1][1][t]=(this.colors[0][1][t]+this.colors[1][1][t])/2,r[0][0][t]=s[1][0][t],r[0][1][t]=s[1][1][t],r[1][0][t]=this.colors[1][0][t],r[1][1][t]=this.colors[1][1][t];return[new m(t,s),new m(e,r)]}paint(t,e){let s,n=!1;for(let t=0;t&lt;4;++t)if((s=o([this.nodes[0][t],this.nodes[1][t],this.nodes[2][t],this.nodes[3][t]]))&gt;r){n=!0;break}if(n){let s=this.split();s[0].paint(t,e),s[1].paint(t,e)}else{new w([...this.nodes[0]],[...this.colors[0]]).paintCurve(t,e)}}}class b{constructor(t){this.readMesh(t),this.type=t.getAttribute(&quot;type&quot;)||&quot;bilinear&quot;}readMesh(t){let e=[[]],s=[[]],r=Number(t.getAttribute(&quot;x&quot;)),n=Number(t.getAttribute(&quot;y&quot;));e[0][0]=new x(r,n);let o=t.children;for(let t=0,r=o.length;t&lt;r;++t){e[3*t+1]=[],e[3*t+2]=[],e[3*t+3]=[],s[t+1]=[];let r=o[t].children;for(let n=0,o=r.length;n&lt;o;++n){let o=r[n].children;for(let r=0,i=o.length;r&lt;i;++r){let i=r;0!==t&amp;&amp;++i;let h,d=o[r].getAttribute(&quot;path&quot;),c=&quot;l&quot;;null!=d&amp;&amp;(c=(h=d.match(/\s*([lLcC])\s*(.*)/))[1]);let u=l(h[2]);switch(c){case&quot;l&quot;:0===i?(e[3*t][3*n+3]=u[0].add(e[3*t][3*n]),e[3*t][3*n+1]=a(e[3*t][3*n],e[3*t][3*n+3]),e[3*t][3*n+2]=a(e[3*t][3*n+3],e[3*t][3*n])):1===i?(e[3*t+3][3*n+3]=u[0].add(e[3*t][3*n+3]),e[3*t+1][3*n+3]=a(e[3*t][3*n+3],e[3*t+3][3*n+3]),e[3*t+2][3*n+3]=a(e[3*t+3][3*n+3],e[3*t][3*n+3])):2===i?(0===n&amp;&amp;(e[3*t+3][3*n+0]=u[0].add(e[3*t+3][3*n+3])),e[3*t+3][3*n+1]=a(e[3*t+3][3*n],e[3*t+3][3*n+3]),e[3*t+3][3*n+2]=a(e[3*t+3][3*n+3],e[3*t+3][3*n])):(e[3*t+1][3*n]=a(e[3*t][3*n],e[3*t+3][3*n]),e[3*t+2][3*n]=a(e[3*t+3][3*n],e[3*t][3*n]));break;case&quot;L&quot;:0===i?(e[3*t][3*n+3]=u[0],e[3*t][3*n+1]=a(e[3*t][3*n],e[3*t][3*n+3]),e[3*t][3*n+2]=a(e[3*t][3*n+3],e[3*t][3*n])):1===i?(e[3*t+3][3*n+3]=u[0],e[3*t+1][3*n+3]=a(e[3*t][3*n+3],e[3*t+3][3*n+3]),e[3*t+2][3*n+3]=a(e[3*t+3][3*n+3],e[3*t][3*n+3])):2===i?(0===n&amp;&amp;(e[3*t+3][3*n+0]=u[0]),e[3*t+3][3*n+1]=a(e[3*t+3][3*n],e[3*t+3][3*n+3]),e[3*t+3][3*n+2]=a(e[3*t+3][3*n+3],e[3*t+3][3*n])):(e[3*t+1][3*n]=a(e[3*t][3*n],e[3*t+3][3*n]),e[3*t+2][3*n]=a(e[3*t+3][3*n],e[3*t][3*n]));break;case&quot;c&quot;:0===i?(e[3*t][3*n+1]=u[0].add(e[3*t][3*n]),e[3*t][3*n+2]=u[1].add(e[3*t][3*n]),e[3*t][3*n+3]=u[2].add(e[3*t][3*n])):1===i?(e[3*t+1][3*n+3]=u[0].add(e[3*t][3*n+3]),e[3*t+2][3*n+3]=u[1].add(e[3*t][3*n+3]),e[3*t+3][3*n+3]=u[2].add(e[3*t][3*n+3])):2===i?(e[3*t+3][3*n+2]=u[0].add(e[3*t+3][3*n+3]),e[3*t+3][3*n+1]=u[1].add(e[3*t+3][3*n+3]),0===n&amp;&amp;(e[3*t+3][3*n+0]=u[2].add(e[3*t+3][3*n+3]))):(e[3*t+2][3*n]=u[0].add(e[3*t+3][3*n]),e[3*t+1][3*n]=u[1].add(e[3*t+3][3*n]));break;case&quot;C&quot;:0===i?(e[3*t][3*n+1]=u[0],e[3*t][3*n+2]=u[1],e[3*t][3*n+3]=u[2]):1===i?(e[3*t+1][3*n+3]=u[0],e[3*t+2][3*n+3]=u[1],e[3*t+3][3*n+3]=u[2]):2===i?(e[3*t+3][3*n+2]=u[0],e[3*t+3][3*n+1]=u[1],0===n&amp;&amp;(e[3*t+3][3*n+0]=u[2])):(e[3*t+2][3*n]=u[0],e[3*t+1][3*n]=u[1]);break;default:console.error(&quot;mesh.js: &quot;+c+&quot; invalid path type.&quot;)}if(0===t&amp;&amp;0===n||r&gt;0){let e=window.getComputedStyle(o[r]).stopColor.match(/^rgb\s*\(\s*(\d+)\s*,\s*(\d+)\s*,\s*(\d+)\s*\)$/i),a=window.getComputedStyle(o[r]).stopOpacity,h=255;a&amp;&amp;(h=Math.floor(255*a)),e&amp;&amp;(0===i?(s[t][n]=[],s[t][n][0]=Math.floor(e[1]),s[t][n][1]=Math.floor(e[2]),s[t][n][2]=Math.floor(e[3]),s[t][n][3]=h):1===i?(s[t][n+1]=[],s[t][n+1][0]=Math.floor(e[1]),s[t][n+1][1]=Math.floor(e[2]),s[t][n+1][2]=Math.floor(e[3]),s[t][n+1][3]=h):2===i?(s[t+1][n+1]=[],s[t+1][n+1][0]=Math.floor(e[1]),s[t+1][n+1][1]=Math.floor(e[2]),s[t+1][n+1][2]=Math.floor(e[3]),s[t+1][n+1][3]=h):3===i&amp;&amp;(s[t+1][n]=[],s[t+1][n][0]=Math.floor(e[1]),s[t+1][n][1]=Math.floor(e[2]),s[t+1][n][2]=Math.floor(e[3]),s[t+1][n][3]=h))}}e[3*t+1][3*n+1]=new x,e[3*t+1][3*n+2]=new x,e[3*t+2][3*n+1]=new x,e[3*t+2][3*n+2]=new x,e[3*t+1][3*n+1].x=(-4*e[3*t][3*n].x+6*(e[3*t][3*n+1].x+e[3*t+1][3*n].x)+-2*(e[3*t][3*n+3].x+e[3*t+3][3*n].x)+3*(e[3*t+3][3*n+1].x+e[3*t+1][3*n+3].x)+-1*e[3*t+3][3*n+3].x)/9,e[3*t+1][3*n+2].x=(-4*e[3*t][3*n+3].x+6*(e[3*t][3*n+2].x+e[3*t+1][3*n+3].x)+-2*(e[3*t][3*n].x+e[3*t+3][3*n+3].x)+3*(e[3*t+3][3*n+2].x+e[3*t+1][3*n].x)+-1*e[3*t+3][3*n].x)/9,e[3*t+2][3*n+1].x=(-4*e[3*t+3][3*n].x+6*(e[3*t+3][3*n+1].x+e[3*t+2][3*n].x)+-2*(e[3*t+3][3*n+3].x+e[3*t][3*n].x)+3*(e[3*t][3*n+1].x+e[3*t+2][3*n+3].x)+-1*e[3*t][3*n+3].x)/9,e[3*t+2][3*n+2].x=(-4*e[3*t+3][3*n+3].x+6*(e[3*t+3][3*n+2].x+e[3*t+2][3*n+3].x)+-2*(e[3*t+3][3*n].x+e[3*t][3*n+3].x)+3*(e[3*t][3*n+2].x+e[3*t+2][3*n].x)+-1*e[3*t][3*n].x)/9,e[3*t+1][3*n+1].y=(-4*e[3*t][3*n].y+6*(e[3*t][3*n+1].y+e[3*t+1][3*n].y)+-2*(e[3*t][3*n+3].y+e[3*t+3][3*n].y)+3*(e[3*t+3][3*n+1].y+e[3*t+1][3*n+3].y)+-1*e[3*t+3][3*n+3].y)/9,e[3*t+1][3*n+2].y=(-4*e[3*t][3*n+3].y+6*(e[3*t][3*n+2].y+e[3*t+1][3*n+3].y)+-2*(e[3*t][3*n].y+e[3*t+3][3*n+3].y)+3*(e[3*t+3][3*n+2].y+e[3*t+1][3*n].y)+-1*e[3*t+3][3*n].y)/9,e[3*t+2][3*n+1].y=(-4*e[3*t+3][3*n].y+6*(e[3*t+3][3*n+1].y+e[3*t+2][3*n].y)+-2*(e[3*t+3][3*n+3].y+e[3*t][3*n].y)+3*(e[3*t][3*n+1].y+e[3*t+2][3*n+3].y)+-1*e[3*t][3*n+3].y)/9,e[3*t+2][3*n+2].y=(-4*e[3*t+3][3*n+3].y+6*(e[3*t+3][3*n+2].y+e[3*t+2][3*n+3].y)+-2*(e[3*t+3][3*n].y+e[3*t][3*n+3].y)+3*(e[3*t][3*n+2].y+e[3*t+2][3*n].y)+-1*e[3*t][3*n].y)/9}}this.nodes=e,this.colors=s}paintMesh(t,e){let s=(this.nodes.length-1)/3,r=(this.nodes[0].length-1)/3;if(&quot;bilinear&quot;===this.type||s&lt;2||r&lt;2){let n;for(let o=0;o&lt;s;++o)for(let s=0;s&lt;r;++s){let r=[];for(let t=3*o,e=3*o+4;t&lt;e;++t)r.push(this.nodes[t].slice(3*s,3*s+4));let i=[];i.push(this.colors[o].slice(s,s+2)),i.push(this.colors[o+1].slice(s,s+2)),(n=new m(r,i)).paint(t,e)}}else{let n,o,a,h,l,d,u;const x=s,g=r;s++,r++;let w=new Array(s);for(let t=0;t&lt;s;++t){w[t]=new Array(r);for(let e=0;e&lt;r;++e)w[t][e]=[],w[t][e][0]=this.nodes[3*t][3*e],w[t][e][1]=this.colors[t][e]}for(let t=0;t&lt;s;++t)for(let e=0;e&lt;r;++e)0!==t&amp;&amp;t!==x&amp;&amp;(n=i(w[t-1][e][0],w[t][e][0]),o=i(w[t+1][e][0],w[t][e][0]),w[t][e][2]=c(w[t-1][e][1],w[t][e][1],w[t+1][e][1],n,o)),0!==e&amp;&amp;e!==g&amp;&amp;(n=i(w[t][e-1][0],w[t][e][0]),o=i(w[t][e+1][0],w[t][e][0]),w[t][e][3]=c(w[t][e-1][1],w[t][e][1],w[t][e+1][1],n,o));for(let t=0;t&lt;r;++t){w[0][t][2]=[],w[x][t][2]=[];for(let e=0;e&lt;4;++e)n=i(w[1][t][0],w[0][t][0]),o=i(w[x][t][0],w[x-1][t][0]),w[0][t][2][e]=n&gt;0?2*(w[1][t][1][e]-w[0][t][1][e])/n-w[1][t][2][e]:0,w[x][t][2][e]=o&gt;0?2*(w[x][t][1][e]-w[x-1][t][1][e])/o-w[x-1][t][2][e]:0}for(let t=0;t&lt;s;++t){w[t][0][3]=[],w[t][g][3]=[];for(let e=0;e&lt;4;++e)n=i(w[t][1][0],w[t][0][0]),o=i(w[t][g][0],w[t][g-1][0]),w[t][0][3][e]=n&gt;0?2*(w[t][1][1][e]-w[t][0][1][e])/n-w[t][1][3][e]:0,w[t][g][3][e]=o&gt;0?2*(w[t][g][1][e]-w[t][g-1][1][e])/o-w[t][g-1][3][e]:0}for(let s=0;s&lt;x;++s)for(let r=0;r&lt;g;++r){let n=i(w[s][r][0],w[s+1][r][0]),o=i(w[s][r+1][0],w[s+1][r+1][0]),c=i(w[s][r][0],w[s][r+1][0]),x=i(w[s+1][r][0],w[s+1][r+1][0]),g=[[],[],[],[]];for(let t=0;t&lt;4;++t){(d=[])[0]=w[s][r][1][t],d[1]=w[s+1][r][1][t],d[2]=w[s][r+1][1][t],d[3]=w[s+1][r+1][1][t],d[4]=w[s][r][2][t]*n,d[5]=w[s+1][r][2][t]*n,d[6]=w[s][r+1][2][t]*o,d[7]=w[s+1][r+1][2][t]*o,d[8]=w[s][r][3][t]*c,d[9]=w[s+1][r][3][t]*x,d[10]=w[s][r+1][3][t]*c,d[11]=w[s+1][r+1][3][t]*x,d[12]=0,d[13]=0,d[14]=0,d[15]=0,u=f(d);for(let e=0;e&lt;9;++e){g[t][e]=[];for(let s=0;s&lt;9;++s)g[t][e][s]=p(u,e/8,s/8),g[t][e][s]&gt;255?g[t][e][s]=255:g[t][e][s]&lt;0&amp;&amp;(g[t][e][s]=0)}}h=[];for(let t=3*s,e=3*s+4;t&lt;e;++t)h.push(this.nodes[t].slice(3*r,3*r+4));l=y(h);for(let s=0;s&lt;8;++s)for(let r=0;r&lt;8;++r)(a=new m(l[s][r],[[[g[0][s][r],g[1][s][r],g[2][s][r],g[3][s][r]],[g[0][s][r+1],g[1][s][r+1],g[2][s][r+1],g[3][s][r+1]]],[[g[0][s+1][r],g[1][s+1][r],g[2][s+1][r],g[3][s+1][r]],[g[0][s+1][r+1],g[1][s+1][r+1],g[2][s+1][r+1],g[3][s+1][r+1]]]])).paint(t,e)}}}transform(t){if(t instanceof x)for(let e=0,s=this.nodes.length;e&lt;s;++e)for(let s=0,r=this.nodes[0].length;s&lt;r;++s)this.nodes[e][s]=this.nodes[e][s].add(t);else if(t instanceof g)for(let e=0,s=this.nodes.length;e&lt;s;++e)for(let s=0,r=this.nodes[0].length;s&lt;r;++s)this.nodes[e][s]=this.nodes[e][s].transform(t)}scale(t){for(let e=0,s=this.nodes.length;e&lt;s;++e)for(let s=0,r=this.nodes[0].length;s&lt;r;++s)this.nodes[e][s]=this.nodes[e][s].scale(t)}}document.querySelectorAll(&quot;rect,circle,ellipse,path,text&quot;).forEach((r,n)=&gt;{let o=r.getAttribute(&quot;id&quot;);o||(o=&quot;patchjs_shape&quot;+n,r.setAttribute(&quot;id&quot;,o));const i=r.style.fill.match(/^url\(\s*&quot;?\s*#([^\s&quot;]+)&quot;?\s*\)/),a=r.style.stroke.match(/^url\(\s*&quot;?\s*#([^\s&quot;]+)&quot;?\s*\)/);if(i&amp;&amp;i[1]){const a=document.getElementById(i[1]);if(a&amp;&amp;&quot;meshgradient&quot;===a.nodeName){const i=r.getBBox();let l=document.createElementNS(s,&quot;canvas&quot;);d(l,{width:i.width,height:i.height});const c=l.getContext(&quot;2d&quot;);let u=c.createImageData(i.width,i.height);const f=new b(a);&quot;objectBoundingBox&quot;===a.getAttribute(&quot;gradientUnits&quot;)&amp;&amp;f.scale(new x(i.width,i.height));const p=a.getAttribute(&quot;gradientTransform&quot;);null!=p&amp;&amp;f.transform(h(p)),&quot;userSpaceOnUse&quot;===a.getAttribute(&quot;gradientUnits&quot;)&amp;&amp;f.transform(new x(-i.x,-i.y)),f.paintMesh(u.data,l.width),c.putImageData(u,0,0);const y=document.createElementNS(t,&quot;image&quot;);d(y,{width:i.width,height:i.height,x:i.x,y:i.y});let g=l.toDataURL();y.setAttributeNS(e,&quot;xlink:href&quot;,g),r.parentNode.insertBefore(y,r),r.style.fill=&quot;none&quot;;const w=document.createElementNS(t,&quot;use&quot;);w.setAttributeNS(e,&quot;xlink:href&quot;,&quot;#&quot;+o);const m=&quot;patchjs_clip&quot;+n,M=document.createElementNS(t,&quot;clipPath&quot;);M.setAttribute(&quot;id&quot;,m),M.appendChild(w),r.parentElement.insertBefore(M,r),y.setAttribute(&quot;clip-path&quot;,&quot;url(#&quot;+m+&quot;)&quot;),u=null,l=null,g=null}}if(a&amp;&amp;a[1]){const o=document.getElementById(a[1]);if(o&amp;&amp;&quot;meshgradient&quot;===o.nodeName){const i=parseFloat(r.style.strokeWidth.slice(0,-2))*(parseFloat(r.style.strokeMiterlimit)||parseFloat(r.getAttribute(&quot;stroke-miterlimit&quot;))||1),a=r.getBBox(),l=Math.trunc(a.width+i),c=Math.trunc(a.height+i),u=Math.trunc(a.x-i/2),f=Math.trunc(a.y-i/2);let p=document.createElementNS(s,&quot;canvas&quot;);d(p,{width:l,height:c});const y=p.getContext(&quot;2d&quot;);let g=y.createImageData(l,c);const w=new b(o);&quot;objectBoundingBox&quot;===o.getAttribute(&quot;gradientUnits&quot;)&amp;&amp;w.scale(new x(l,c));const m=o.getAttribute(&quot;gradientTransform&quot;);null!=m&amp;&amp;w.transform(h(m)),&quot;userSpaceOnUse&quot;===o.getAttribute(&quot;gradientUnits&quot;)&amp;&amp;w.transform(new x(-u,-f)),w.paintMesh(g.data,p.width),y.putImageData(g,0,0);const M=document.createElementNS(t,&quot;image&quot;);d(M,{width:l,height:c,x:0,y:0});let S=p.toDataURL();M.setAttributeNS(e,&quot;xlink:href&quot;,S);const k=&quot;pattern_clip&quot;+n,A=document.createElementNS(t,&quot;pattern&quot;);d(A,{id:k,patternUnits:&quot;userSpaceOnUse&quot;,width:l,height:c,x:u,y:f}),A.appendChild(M),o.parentNode.appendChild(A),r.style.stroke=&quot;url(#&quot;+k+&quot;)&quot;,g=null,p=null,S=null}}})}();
</script>
</svg>
